<svg xmlns="http://www.w3.org/2000/svg" width="24" height="24" class="_2Xy1u button-icon">
  <path
    d="M15.6 13.3l1.9-.7c0-.1-1.2-3.2-4.2-3.2-2 0-3.1 1.3-3.7 2.3-.7-.2-1.8-.2-2.6.3-1 .6-1.4 1.8-1.4 3.4h2c0-.5.1-1.4.5-1.7.5-.3 1.3-.1 1.7.1l1 .5.3-1.1s.6-1.8 2.2-1.8c1.6.1 2.2 1.9 2.3 1.9z"
  ></path>
  <circle cx="8.5" cy="8" r="1.5"></circle>
  <path d="M21.5 16.5h-3v-3h-2v3h-3v2h3v3h2v-3h3z"></path>
  <path d="M4.5 4.5h14v8h2v-8c0-1.1-.9-2-2-2h-14c-1.1 0-2 .9-2 2v14c0 1.1.9 2 2 2h8v-2h-8v-14z"></path>
</svg>