<svg viewBox="0 0 400 300" fill="none" xmlns="http://www.w3.org/2000/svg"><path d="M274.5 110.201v28.4c-7.6-3.5-29.1-6.2-56.3-7.1v-28.4c27.2.9 48.7 3.6 56.3 7.1Z" fill="#fff" stroke="#0C296E" stroke-width=".5" stroke-miterlimit="10" stroke-linecap="round" stroke-linejoin="round"/><path d="M225.6 113.9s21.8-.8 41.6 5.6l-41.6-5.6Z" fill="#fff"/><path d="M225.6 113.9s21.8-.8 41.6 5.6" stroke="#0C296E" stroke-width=".5" stroke-miterlimit="10" stroke-linecap="round" stroke-linejoin="round"/><path d="M225.5 119.301s21.8-.8 41.6 5.6l-41.6-5.6Z" fill="#fff"/><path d="M225.5 119.301s21.8-.8 41.6 5.6" stroke="#0C296E" stroke-width=".5" stroke-miterlimit="10" stroke-linecap="round" stroke-linejoin="round"/><path d="M225.7 124.1s9-.6 18.7 1.3l-18.7-1.3Z" fill="#fff"/><path d="M225.7 124.1s9-.6 18.7 1.3" stroke="#0C296E" stroke-width=".5" stroke-miterlimit="10" stroke-linecap="round" stroke-linejoin="round"/><path d="m220.8 155.801-3.2-6.2 3.8-5.8 6.9.4 3.2 6.1-3.8 5.9-6.9-.4Z" fill="#FFC60A"/><path d="M202.8 140.801h-14.5v15.2h14.5v-15.2Z" fill="#fff" stroke="#0C296E" stroke-width=".5" stroke-miterlimit="10" stroke-linecap="round" stroke-linejoin="round"/><path d="M222.1 133.5a7 7 0 1 0 0-14 7 7 0 0 0 0 14ZM169.3 133.5a7 7 0 1 0 0-14 7 7 0 0 0 0 14Z" fill="#fff" stroke="#0C296E" stroke-width=".5" stroke-miterlimit="10"/><path d="M196.3 146.5c12.647 0 22.9-10.252 22.9-22.9 0-12.647-10.253-22.9-22.9-22.9-12.647 0-22.9 10.253-22.9 22.9 0 12.648 10.253 22.9 22.9 22.9Z" fill="#fff" stroke="#0C296E" stroke-width=".5" stroke-miterlimit="10"/><path d="M169.8 119.3s3.4-26.3 26.8-25.8c21.9.5 25.6 20.5 26.5 25.3 0 0-7.3 7.1-17.8-2.8 0 0-8.4 11.1-19-.3 0-.1-7.1 12.4-16.5 3.6ZM197.3 90.1c7.511 0 13.6-6.088 13.6-13.6 0-7.51-6.089-13.6-13.6-13.6-7.511 0-13.6 6.09-13.6 13.6 0 7.511 6.089 13.6 13.6 13.6Z" fill="#0C296E"/><path d="M192.2 76.4a1.9 1.9 0 1 0 0-3.8 1.9 1.9 0 0 0 0 3.8ZM202.3 76.4a1.9 1.9 0 1 0 0-3.8 1.9 1.9 0 0 0 0 3.8Z" fill="#fff"/><path d="M200.7 77.8c0 1.4-1.2 2.6-2.6 2.6h-1.5c-1.4 0-2.6-1.2-2.6-2.6" stroke="#fff" stroke-width="1.055" stroke-miterlimit="10" stroke-linecap="round" stroke-linejoin="round"/><path d="m226.2 81.6-3.2 4.3M229.1 85.501l-4.6 2.8M165.4 76.9l3.2 4.3M162.5 80.8l4.5 2.8" stroke="#0C296E" stroke-miterlimit="10" stroke-linecap="round" stroke-linejoin="round"/><path d="M183.9 126.5s4.1-4.1 8.2 0h-8.2Z" fill="#fff"/><path d="M183.9 126.5s4.1-4.1 8.2 0" stroke="#0C296E" stroke-width=".5" stroke-miterlimit="10" stroke-linecap="round" stroke-linejoin="round"/><path d="M200.6 126.5s4.1-4.1 8.2 0h-8.2Z" fill="#fff"/><path d="M200.6 126.5s4.1-4.1 8.2 0" stroke="#0C296E" stroke-width=".5" stroke-miterlimit="10" stroke-linecap="round" stroke-linejoin="round"/><path d="M192.7 130.1h8.2v1.3c0 2.3-1.8 4.1-4.1 4.1s-4.2-1.9-4.1-4.3v-1.1Z" fill="#fff" stroke="#0C296E" stroke-width=".5" stroke-miterlimit="10" stroke-linecap="round" stroke-linejoin="round"/><path d="m185 129.1-1 1.9M187.5 129.1l-1 1.9M206.2 129.1l-1 1.9M208.7 129.1l-1 1.9" stroke="#0C296E" stroke-width=".5" stroke-miterlimit="10" stroke-linecap="round" stroke-linejoin="round"/><path d="M188.3 153.8c2.8 1.5 8.4 3.4 14.8-.1 1.2-.7 2.6-.9 4-.5 4.7 1.3 16.6 5.9 22.2 9.6 7.3 4.8 9.5 15.4 9.5 15.4l-.5 24.3h-83.9v-24.8s3.2-11 12.7-16.6c6.7-3.9 13.5-6.5 17.1-7.8 1.3-.4 2.8-.2 4.1.5Z" fill="#fff" stroke="#0C296E" stroke-width=".5" stroke-miterlimit="10" stroke-linecap="round" stroke-linejoin="round"/><path d="M254.4 171.5v34.4H141.9l-.3-.3-16-16.9 16-16.9.3-.3h112.5Z" fill="#00D6B9"/><path d="m161.873 193.908-3.137-11.472h1.412l2.398 9.344h.112l2.442-9.344h1.569l2.442 9.344h.112l2.397-9.344h1.412l-3.137 11.472h-1.434l-2.532-9.142h-.089l-2.532 9.142h-1.435Zm15.517.179c-.829 0-1.544-.183-2.145-.549a3.679 3.679 0 0 1-1.384-1.546c-.321-.664-.482-1.437-.482-2.319 0-.881.161-1.658.482-2.33.325-.676.777-1.203 1.356-1.58.582-.381 1.262-.571 2.039-.571.448 0 .891.075 1.327.224.437.149.835.392 1.194.728.358.333.644.773.857 1.322.213.549.319 1.225.319 2.028v.56h-6.632v-1.143h5.288c0-.485-.098-.918-.292-1.299a2.188 2.188 0 0 0-.818-.902c-.351-.22-.765-.331-1.243-.331-.527 0-.982.131-1.367.393a2.565 2.565 0 0 0-.879 1.008 2.953 2.953 0 0 0-.309 1.333v.762c0 .65.112 1.201.337 1.652.227.449.543.79.946 1.026.404.231.872.347 1.406.347.348 0 .661-.049.941-.146.284-.101.529-.25.734-.448a2.03 2.03 0 0 0 .476-.751l1.278.359a2.848 2.848 0 0 1-.678 1.143 3.31 3.31 0 0 1-1.177.762 4.363 4.363 0 0 1-1.574.268Zm6.896-11.651v11.472h-1.322v-11.472h1.322Zm5.917 11.651c-.807 0-1.501-.19-2.084-.571a3.718 3.718 0 0 1-1.344-1.574c-.314-.668-.471-1.432-.471-2.291 0-.874.161-1.645.482-2.314.325-.672.777-1.197 1.355-1.574.583-.381 1.263-.571 2.039-.571a3.86 3.86 0 0 1 1.636.336 3.13 3.13 0 0 1 1.193.941c.31.403.503.874.577 1.412h-1.322c-.101-.392-.325-.74-.672-1.042-.343-.306-.807-.46-1.389-.46-.515 0-.967.135-1.356.404-.384.265-.685.64-.902 1.126-.212.481-.319 1.047-.319 1.697 0 .665.105 1.244.314 1.737.213.493.511.875.896 1.148.388.273.844.409 1.367.409.343 0 .655-.06.935-.179.28-.12.518-.292.712-.516.194-.224.332-.493.414-.806h1.322a3.052 3.052 0 0 1-1.714 2.336c-.478.235-1.034.352-1.669.352Zm8.811 0c-.776 0-1.458-.184-2.044-.554-.583-.37-1.038-.887-1.367-1.552-.325-.665-.487-1.441-.487-2.33 0-.896.162-1.679.487-2.347.329-.669.784-1.188 1.367-1.558.586-.369 1.268-.554 2.044-.554.777 0 1.457.185 2.039.554.587.37 1.042.889 1.367 1.558.329.668.493 1.451.493 2.347 0 .889-.164 1.665-.493 2.33a3.713 3.713 0 0 1-1.367 1.552c-.582.37-1.262.554-2.039.554Zm0-1.187c.59 0 1.076-.151 1.457-.454.381-.302.663-.7.846-1.193a4.568 4.568 0 0 0 .274-1.602c0-.575-.091-1.111-.274-1.608a2.705 2.705 0 0 0-.846-1.204c-.381-.306-.867-.46-1.457-.46-.59 0-1.075.154-1.456.46a2.705 2.705 0 0 0-.846 1.204 4.618 4.618 0 0 0-.274 1.608c0 .575.091 1.109.274 1.602.183.493.465.891.846 1.193.381.303.866.454 1.456.454Zm5.917 1.008v-8.604h1.277v1.344h.112c.18-.459.469-.816.869-1.07.399-.257.879-.386 1.439-.386.568 0 1.04.129 1.418.386.381.254.677.611.89 1.07h.09c.22-.444.551-.797.991-1.058.441-.266.97-.398 1.586-.398.769 0 1.398.241 1.888.723.489.478.733 1.223.733 2.235v5.758h-1.322v-5.758c0-.635-.173-1.089-.521-1.362a1.93 1.93 0 0 0-1.226-.409c-.605 0-1.074.183-1.406.549-.333.363-.499.822-.499 1.378v5.602h-1.344v-5.893c0-.489-.159-.883-.477-1.182-.317-.302-.726-.454-1.226-.454-.344 0-.665.092-.964.275a2.073 2.073 0 0 0-.717.762 2.252 2.252 0 0 0-.269 1.115v5.377h-1.322Zm17.318.179c-.829 0-1.544-.183-2.145-.549a3.679 3.679 0 0 1-1.384-1.546c-.321-.664-.482-1.437-.482-2.319 0-.881.161-1.658.482-2.33.325-.676.777-1.203 1.356-1.58.582-.381 1.262-.571 2.039-.571.448 0 .89.075 1.327.224a3.28 3.28 0 0 1 1.193.728c.359.333.645.773.857 1.322.213.549.32 1.225.32 2.028v.56h-6.633v-1.143h5.288c0-.485-.097-.918-.291-1.299a2.188 2.188 0 0 0-.818-.902c-.351-.22-.765-.331-1.243-.331-.527 0-.983.131-1.367.393a2.576 2.576 0 0 0-.88 1.008 2.966 2.966 0 0 0-.308 1.333v.762c0 .65.112 1.201.336 1.652.228.449.544.79.947 1.026.403.231.872.347 1.406.347.347 0 .661-.049.941-.146.284-.101.529-.25.734-.448.205-.202.364-.452.476-.751l1.277.359c-.134.433-.36.814-.678 1.143a3.296 3.296 0 0 1-1.176.762 4.367 4.367 0 0 1-1.574.268Z" fill="#fff"/><path d="M265.4 171.9c4.2 14.8-12.1 22.3-8.3 13.7 3.8-8.6 16.2 5.4 2.5 19.1-13.7 13.7-34.7 8.9-34.7 8.9" stroke="#0C296E" stroke-width=".5" stroke-miterlimit="10" stroke-dasharray="2.39 2.39"/><path d="M190.7 141.201v24.8c-26.5-.8-47-3.6-52-7v-24.7c5 3.4 25.5 6.1 52 6.9Z" fill="#fff" stroke="#0C296E" stroke-width=".5" stroke-miterlimit="10" stroke-linecap="round" stroke-linejoin="round"/><path d="m166.4 151.7-6.5-3.7v7.5l6.5-3.8Z" fill="#0C296E"/><path d="M162.3 158a6.3 6.3 0 1 0 0-12.6 6.3 6.3 0 0 0 0 12.6Z" stroke="#0C296E" stroke-width=".5" stroke-miterlimit="10"/><path d="M239.5 140.6a1.4 1.4 0 1 0 0-2.8 1.4 1.4 0 0 0 0 2.8ZM148.5 104.4a1.6 1.6 0 1 0 0-3.2 1.6 1.6 0 0 0 0 3.2ZM246 153.8l-3.5 1.3 2.9 2.4.6-3.7Z" fill="#fff" stroke="#0C296E" stroke-width=".5" stroke-miterlimit="10" stroke-linecap="round" stroke-linejoin="round"/><path d="M263.8 143.301v2.3M263.8 147.101v2.3M260.8 146.301h2.3M264.5 146.301h2.4M161.2 95.8v1.6M161.2 98.4v1.6M159.2 97.9h1.5M161.7 97.9h1.6" stroke="#0C296E" stroke-width=".5" stroke-miterlimit="10" stroke-linecap="round" stroke-linejoin="round"/></svg>